<?xml version="1.0" encoding="UTF-8" standalone="no"?>
<!-- Created with Inkscape (http://www.inkscape.org/) -->

<svg
   version="1.1"
   id="svg2"
   xml:space="preserve"
   width="195.49626"
   height="186.77129"
   viewBox="0 0 195.49626 186.77129"
   sodipodi:docname="SGMK Stempel.svg"
   inkscape:version="1.4.2 (ebf0e94, 2025-05-08)"
   xmlns:inkscape="http://www.inkscape.org/namespaces/inkscape"
   xmlns:sodipodi="http://sodipodi.sourceforge.net/DTD/sodipodi-0.dtd"
   xmlns="http://www.w3.org/2000/svg"
   xmlns:svg="http://www.w3.org/2000/svg"><defs
     id="defs6" /><sodipodi:namedview
     id="namedview4"
     pagecolor="#ffffff"
     bordercolor="#666666"
     borderopacity="1.0"
     inkscape:pageshadow="2"
     inkscape:pageopacity="0.0"
     inkscape:pagecheckerboard="0"
     showgrid="false"
     inkscape:zoom="1.4029123"
     inkscape:cx="21.384088"
     inkscape:cy="127.23532"
     inkscape:window-width="1863"
     inkscape:window-height="1016"
     inkscape:window-x="0"
     inkscape:window-y="0"
     inkscape:window-maximized="1"
     inkscape:current-layer="g8"
     inkscape:showpageshadow="2"
     inkscape:deskcolor="#d1d1d1" /><g
     id="g8"
     inkscape:groupmode="layer"
     inkscape:label="SGMK Stempel"
     transform="matrix(1.3333333,0,0,-1.3333333,-194.22901,732.11836)"><rect
       style="fill:#ffffff;stroke:#000000;stroke-width:0.0174071;stroke-linecap:round;stop-color:#000000"
       id="rect1617"
       width="146.6048"
       height="140.06107"
       x="145.68047"
       y="-549.08008"
       transform="scale(1,-1)" /><g
       id="g10"
       transform="matrix(74.4993,0,0,57.731,174.5,453.0009)"><path
         style="fill:#ff0000;stroke-width:0.00365268"
         d="m 0.33695268,0.02722413 c -0.0213662,0.013648 -0.027457,0.0280229 -0.0291117,0.0687072 l -0.001406,0.0345703 h 0.0277344 0.0277344 l 4.919e-5,-0.0259336 c 5.756e-5,-0.030382 0.002706,-0.0375432 0.0131761,-0.0356327 0.006578,0.0012 0.00782,0.004021 0.00869,0.0197398 0.001709,0.0308637 -6.8434e-4,0.03552 -0.0340039,0.0661591 -0.0172261,0.0158403 -0.0331125,0.0326578 -0.035303,0.0373721 -0.00716,0.0154092 -0.0109701,0.0475066 -0.00868,0.073126 0.001891,0.0211589 0.003968,0.0271242 0.0139127,0.0399573 0.0201155,0.0259582 0.0605137,0.030702 0.0931579,0.0109391 0.0168657,-0.0102105 0.022956,-0.0258735 0.022956,-0.0590376 v -0.0229549 h -0.0273312 -0.0273312 v 0.0178423 c 0,0.0210916 -0.004697,0.0292904 -0.0133543,0.0233113 -0.004358,-0.003009 -0.005938,-0.00884 -0.005938,-0.0219041 0,-0.0202177 0.003004,-0.0247683 0.0340015,-0.051511 0.0224894,-0.0194024 0.0387825,-0.0417573 0.0423186,-0.0580635 0.001352,-0.006234 0.002458,-0.027538 0.002458,-0.047342 0,-0.0422191 -0.004582,-0.0537209 -0.0273969,-0.0687645 -0.0195017,-0.0128593 -0.056667,-0.0131419 -0.0763326,-5.806e-4 z"
         id="path1169" /><path
         style="fill:#000000;stroke-width:0.00365268"
         d="M 0.19148567,0.68444355 V 0.97282529 H 0.41495834 0.63843101 V 0.68444355 0.3960618 H 0.41495834 0.19148567 Z"
         id="path1378" /><path
         style="fill:#ff0000;stroke-width:0.00365268"
         d="M 0.08859178,0.25290827 V 0.3587174 h 0.0819936 0.0819936 V 0.25290828 0.14709915 H 0.17058535 0.08859178 Z"
         id="path1376" /><path
         style="fill:#ff0000;stroke-width:0.00365268"
         d="m 0.83457244,0.17199537 v 0.1493776 h 0.028846 0.028846 l 8.972e-4,-0.0549793 c 4.935e-4,-0.0302386 0.00191,-0.0521784 0.00314,-0.0487552 0.00123,0.003423 0.00746,0.0281639 0.013844,0.0549793 l 0.0116,0.0487552 h 0.027152 c 0.014934,0 0.027153,-0.001339 0.027153,-0.002975 0,-0.001636 -0.00743,-0.0319784 -0.016517,-0.0674274 l -0.016517,-0.0644528 0.018125,-0.0775948 c 0.00997,-0.0426771 0.018125,-0.0795547 0.018125,-0.0819502 0,-0.00273 -0.011192,-0.004355 -0.029982,-0.004355 h -0.029981 l -0.010699,0.0549792 c -0.00588,0.0302386 -0.011883,0.0577801 -0.013329,0.0612033 -0.00147,0.003468 -0.00267,-0.0208744 -0.00273,-0.0549793 l -9.78e-5,-0.0612033 h -0.028939 -0.028939 z"
         id="path1374" /><path
         style="fill:#ff0000;stroke-width:0.00365268"
         d="m 0.62235384,0.17199537 v 0.1493776 h 0.0382274 0.0382274 l 0.001844,-0.0134855 c 0.001014,-0.007417 0.004316,-0.0364923 0.007336,-0.0646117 0.003021,-0.0281194 0.006506,-0.0486588 0.007745,-0.0456431 0.001239,0.003016 0.004845,0.0320909 0.008013,0.0646117 l 0.00576,0.0591286 h 0.0396709 0.039671 V 0.17199541 0.02261782 h -0.0273314 -0.0273312 l -3.4723e-4,0.0943983 -3.472e-4,0.0943983 -0.005783,-0.0539419 c -0.003181,-0.0296681 -0.007528,-0.0721473 -0.009661,-0.0943983 l -0.003877,-0.04045643 h -0.018339 -0.018339 l -0.0105633,0.0943983 c -0.00581,0.0519191 -0.0111405,0.0951764 -0.0118459,0.0961273 -7.054e-4,9.5087e-4 -0.001283,-0.0415284 -0.001283,-0.0943983 v -0.0961273 h -0.0257235 -0.0257235 z"
         id="path1372" /><path
         style="fill:#ff0000;stroke-width:0.00365268"
         d="m 0.49213593,0.02500513 c -0.0267917,0.0180272 -0.0310747,0.0325641 -0.0330482,0.11216913 -0.002172,0.0876044 0.001156,0.13891357 0.0101218,0.15608315 0.019659,0.0376452 0.0715374,0.0464764 0.10521418,0.0179107 0.0148895,-0.0126298 0.0211506,-0.0302821 0.0239756,-0.0675961 l 0.002278,-0.030083 h -0.0309621 -0.0309621 v 0.0285376 c 0,0.0315436 -0.005193,0.0436385 -0.0144694,0.0337031 -0.004036,-0.004322 -0.004815,-0.0208359 -0.004774,-0.10113045 2.573e-5,-0.0527807 0.001286,-0.0984827 0.002797,-0.10155996 0.004197,-0.008547 0.014284,-0.003926 0.0167888,0.007691 0.001228,0.005693 0.002376,0.0210882 0.002553,0.0342106 2.8521e-4,0.0212305 -3.8794e-4,0.0238589 -0.00611,0.0238589 -0.005651,0 -0.006431,0.002766 -0.006431,0.0228216 V 0.184443 h 0.0353698 0.0353698 V 0.1035301 0.0226172 h -0.019595 c -0.0168894,0 -0.0198257,0.001145 -0.0212753,0.008299 -0.002137,0.0105456 -0.002852,0.0104424 -0.0143798,-0.002075 -0.0114186,-0.0123989 -0.0369598,-0.0142667 -0.0524611,-0.0038361 z"
         id="path1370" /></g><text
       transform="matrix(-0.90971286,0.41523789,0.41523789,0.90971286,199.8154,436.355)"
       style="font-variant:normal;font-weight:bold;font-size:10.2402px;font-family:Arial;-inkscape-font-specification:'Arial Bold';writing-mode:lr-tb;fill:#231f20;fill-opacity:1;fill-rule:nonzero;stroke:none"
       id="text16"><tspan
         x="0"
         y="0"
         id="tspan14">S</tspan></text><text
       transform="matrix(-0.84932331,0.52787301,0.52787301,0.84932331,193.8208,439.1143)"
       style="font-variant:normal;font-weight:bold;font-size:10.2402px;font-family:Arial;-inkscape-font-specification:'Arial Bold';writing-mode:lr-tb;fill:#231f20;fill-opacity:1;fill-rule:nonzero;stroke:none"
       id="text20"><tspan
         x="0"
         y="0"
         id="tspan18">c</tspan></text><text
       transform="matrix(-0.77851386,0.62762742,0.62762742,0.77851386,189.1499,441.9814)"
       style="font-variant:normal;font-weight:bold;font-size:10.2402px;font-family:Arial;-inkscape-font-specification:'Arial Bold';writing-mode:lr-tb;fill:#231f20;fill-opacity:1;fill-rule:nonzero;stroke:none"
       id="text24"><tspan
         x="0"
         y="0"
         id="tspan22">h</tspan></text><text
       transform="matrix(-0.67859519,0.73451247,0.73451247,0.67859519,184.4238,445.686)"
       style="font-variant:normal;font-weight:bold;font-size:10.2401px;font-family:Arial;-inkscape-font-specification:'Arial Bold';writing-mode:lr-tb;fill:#231f20;fill-opacity:1;fill-rule:nonzero;stroke:none"
       id="text28"><tspan
         x="0"
         y="0"
         id="tspan26">w</tspan></text><text
       transform="matrix(-0.56857404,0.82263209,0.82263209,0.56857404,179.2427,451.3848)"
       style="font-variant:normal;font-weight:bold;font-size:10.2402px;font-family:Arial;-inkscape-font-specification:'Arial Bold';writing-mode:lr-tb;fill:#231f20;fill-opacity:1;fill-rule:nonzero;stroke:none"
       id="text32"><tspan
         x="0"
         y="0"
         id="tspan30">e</tspan></text><text
       transform="matrix(-0.49392568,0.86950412,0.86950412,0.49392568,176.1431,455.9673)"
       style="font-variant:normal;font-weight:bold;font-size:10.2402px;font-family:Arial;-inkscape-font-specification:'Arial Bold';writing-mode:lr-tb;fill:#231f20;fill-opacity:1;fill-rule:nonzero;stroke:none"
       id="text36"><tspan
         x="0"
         y="0"
         id="tspan34">i</tspan></text><text
       transform="matrix(-0.42116381,0.90698459,0.90698459,0.42116381,174.7627,458.291)"
       style="font-variant:normal;font-weight:bold;font-size:10.2402px;font-family:Arial;-inkscape-font-specification:'Arial Bold';writing-mode:lr-tb;fill:#231f20;fill-opacity:1;fill-rule:nonzero;stroke:none"
       id="text40"><tspan
         x="0"
         y="0"
         id="tspan38">z</tspan></text><text
       transform="matrix(-0.31879297,0.94782437,0.94782437,0.31879297,172.6528,462.7788)"
       style="font-variant:normal;font-weight:bold;font-size:10.2402px;font-family:Arial;-inkscape-font-specification:'Arial Bold';writing-mode:lr-tb;fill:#231f20;fill-opacity:1;fill-rule:nonzero;stroke:none"
       id="text44"><tspan
         x="0"
         y="0"
         id="tspan42">e</tspan></text><text
       transform="matrix(-0.22403853,0.97458029,0.97458029,0.22403853,170.9253,468.019)"
       style="font-variant:normal;font-weight:bold;font-size:10.2402px;font-family:Arial;-inkscape-font-specification:'Arial Bold';writing-mode:lr-tb;fill:#231f20;fill-opacity:1;fill-rule:nonzero;stroke:none"
       id="text48"><tspan
         x="0"
         y="0"
         id="tspan46">r</tspan></text><text
       transform="matrix(-0.15499767,0.98791484,0.98791484,0.15499767,170.0757,471.7847)"
       style="font-variant:normal;font-weight:bold;font-size:10.2402px;font-family:Arial;-inkscape-font-specification:'Arial Bold';writing-mode:lr-tb;fill:#231f20;fill-opacity:1;fill-rule:nonzero;stroke:none"
       id="text52"><tspan
         x="0"
         y="0"
         id="tspan50">i</tspan></text><text
       transform="matrix(-0.06715677,0.99774244,0.99774244,0.06715677,169.5879,474.437)"
       style="font-variant:normal;font-weight:bold;font-size:10.2402px;font-family:Arial;-inkscape-font-specification:'Arial Bold';writing-mode:lr-tb;fill:#231f20;fill-opacity:1;fill-rule:nonzero;stroke:none"
       id="text56"><tspan
         x="0"
         y="0"
         id="tspan54">s</tspan></text><text
       transform="matrix(0.0506341,0.99871727,0.99871727,-0.0506341,169.2075,479.9126)"
       style="font-variant:normal;font-weight:bold;font-size:10.2401px;font-family:Arial;-inkscape-font-specification:'Arial Bold';writing-mode:lr-tb;fill:#231f20;fill-opacity:1;fill-rule:nonzero;stroke:none"
       id="text60"><tspan
         x="0"
         y="0"
         id="tspan58">c</tspan></text><text
       transform="matrix(0.17302485,0.98491746,0.98491746,-0.17302485,169.4551,485.3877)"
       style="font-variant:normal;font-weight:bold;font-size:10.2401px;font-family:Arial;-inkscape-font-specification:'Arial Bold';writing-mode:lr-tb;fill:#231f20;fill-opacity:1;fill-rule:nonzero;stroke:none"
       id="text64"><tspan
         x="0"
         y="0"
         id="tspan62">h</tspan></text><text
       transform="matrix(0.29216246,0.9563687,0.9563687,-0.29216246,170.5034,491.3315)"
       style="font-variant:normal;font-weight:bold;font-size:10.2402px;font-family:Arial;-inkscape-font-specification:'Arial Bold';writing-mode:lr-tb;fill:#231f20;fill-opacity:1;fill-rule:nonzero;stroke:none"
       id="text68"><tspan
         x="0"
         y="0"
         id="tspan66">e</tspan></text><text
       transform="matrix(0.47440552,0.88030642,0.88030642,-0.47440552,173.0308,499.1387)"
       style="font-variant:normal;font-weight:bold;font-size:10.2402px;font-family:Arial;-inkscape-font-specification:'Arial Bold';writing-mode:lr-tb;fill:#231f20;fill-opacity:1;fill-rule:nonzero;stroke:none"
       id="text72"><tspan
         x="0"
         y="0"
         id="tspan70">G</tspan></text><text
       transform="matrix(0.59220625,0.80578642,0.80578642,-0.59220625,176.7402,505.8931)"
       style="font-variant:normal;font-weight:bold;font-size:10.2402px;font-family:Arial;-inkscape-font-specification:'Arial Bold';writing-mode:lr-tb;fill:#231f20;fill-opacity:1;fill-rule:nonzero;stroke:none"
       id="text76"><tspan
         x="0"
         y="0"
         id="tspan74">e</tspan></text><text
       transform="matrix(0.68222604,0.73114132,0.73114132,-0.68222604,179.9795,510.3228)"
       style="font-variant:normal;font-weight:bold;font-size:10.2402px;font-family:Arial;-inkscape-font-specification:'Arial Bold';writing-mode:lr-tb;fill:#231f20;fill-opacity:1;fill-rule:nonzero;stroke:none"
       id="text80"><tspan
         x="0"
         y="0"
         id="tspan78">s</tspan></text><text
       transform="matrix(0.76326774,0.64608231,0.64608231,-0.76326774,183.7134,514.3423)"
       style="font-variant:normal;font-weight:bold;font-size:10.2402px;font-family:Arial;-inkscape-font-specification:'Arial Bold';writing-mode:lr-tb;fill:#231f20;fill-opacity:1;fill-rule:nonzero;stroke:none"
       id="text84"><tspan
         x="0"
         y="0"
         id="tspan82">e</tspan></text><text
       transform="matrix(0.81730088,0.57621113,0.57621113,-0.81730088,187.9722,517.8735)"
       style="font-variant:normal;font-weight:bold;font-size:10.2402px;font-family:Arial;-inkscape-font-specification:'Arial Bold';writing-mode:lr-tb;fill:#231f20;fill-opacity:1;fill-rule:nonzero;stroke:none"
       id="text88"><tspan
         x="0"
         y="0"
         id="tspan86">l</tspan></text><text
       transform="matrix(0.84977925,0.52713872,0.52713872,-0.84977925,190.21,519.4561)"
       style="font-variant:normal;font-weight:bold;font-size:10.2402px;font-family:Arial;-inkscape-font-specification:'Arial Bold';writing-mode:lr-tb;fill:#231f20;fill-opacity:1;fill-rule:nonzero;stroke:none"
       id="text92"><tspan
         x="0"
         y="0"
         id="tspan90">l</tspan></text><text
       transform="matrix(0.89286909,0.45031633,0.45031633,-0.89286909,192.4629,520.9346)"
       style="font-variant:normal;font-weight:bold;font-size:10.2401px;font-family:Arial;-inkscape-font-specification:'Arial Bold';writing-mode:lr-tb;fill:#231f20;fill-opacity:1;fill-rule:nonzero;stroke:none"
       id="text96"><tspan
         x="0"
         y="0"
         id="tspan94">s</tspan></text><text
       transform="matrix(0.93896382,0.34401591,0.34401591,-0.93896382,197.3574,523.4155)"
       style="font-variant:normal;font-weight:bold;font-size:10.2402px;font-family:Arial;-inkscape-font-specification:'Arial Bold';writing-mode:lr-tb;fill:#231f20;fill-opacity:1;fill-rule:nonzero;stroke:none"
       id="text100"><tspan
         x="0"
         y="0"
         id="tspan98">c</tspan></text><text
       transform="matrix(0.97371984,0.22774914,0.22774914,-0.97371984,202.4976,525.332)"
       style="font-variant:normal;font-weight:bold;font-size:10.2402px;font-family:Arial;-inkscape-font-specification:'Arial Bold';writing-mode:lr-tb;fill:#231f20;fill-opacity:1;fill-rule:nonzero;stroke:none"
       id="text104"><tspan
         x="0"
         y="0"
         id="tspan102">h</tspan></text><text
       transform="matrix(0.99431772,0.10645313,0.10645313,-0.99431772,208.377,526.7041)"
       style="font-variant:normal;font-weight:bold;font-size:10.2402px;font-family:Arial;-inkscape-font-specification:'Arial Bold';writing-mode:lr-tb;fill:#231f20;fill-opacity:1;fill-rule:nonzero;stroke:none"
       id="text108"><tspan
         x="0"
         y="0"
         id="tspan106">a</tspan></text><text
       transform="matrix(0.99992175,0.01250952,0.01250952,-0.99992175,213.874,527.2461)"
       style="font-variant:normal;font-weight:bold;font-size:10.2402px;font-family:Arial;-inkscape-font-specification:'Arial Bold';writing-mode:lr-tb;fill:#231f20;fill-opacity:1;fill-rule:nonzero;stroke:none"
       id="text112"><tspan
         x="0"
         y="0"
         id="tspan110">f</tspan></text><text
       transform="matrix(0.99831165,-0.05808487,-0.05808487,-0.99831165,217.1592,527.292)"
       style="font-variant:normal;font-weight:bold;font-size:10.2402px;font-family:Arial;-inkscape-font-specification:'Arial Bold';writing-mode:lr-tb;fill:#231f20;fill-opacity:1;fill-rule:nonzero;stroke:none"
       id="text116"><tspan
         x="0"
         y="0"
         id="tspan114">t</tspan></text><text
       transform="matrix(0.98253258,-0.18609067,-0.18609067,-0.98253258,223.1616,526.7734)"
       style="font-variant:normal;font-weight:bold;font-size:10.2402px;font-family:Arial;-inkscape-font-specification:'Arial Bold';writing-mode:lr-tb;fill:#231f20;fill-opacity:1;fill-rule:nonzero;stroke:none"
       id="text120"><tspan
         x="0"
         y="0"
         id="tspan118">f</tspan></text><text
       transform="matrix(0.95926016,-0.28252424,-0.28252424,-0.95926016,226.3618,526.2485)"
       style="font-variant:normal;font-weight:bold;font-size:10.2402px;font-family:Arial;-inkscape-font-specification:'Arial Bold';writing-mode:lr-tb;fill:#231f20;fill-opacity:1;fill-rule:nonzero;stroke:none"
       id="text124"><tspan
         x="0"
         y="0"
         id="tspan122">ü</tspan></text><text
       transform="matrix(0.92451987,-0.38113386,-0.38113386,-0.92451987,232.1646,524.4863)"
       style="font-variant:normal;font-weight:bold;font-size:10.2402px;font-family:Arial;-inkscape-font-specification:'Arial Bold';writing-mode:lr-tb;fill:#231f20;fill-opacity:1;fill-rule:nonzero;stroke:none"
       id="text128"><tspan
         x="0"
         y="0"
         id="tspan126">r</tspan></text><text
       transform="matrix(0.83797991,-0.54570108,-0.54570108,-0.83797991,238.188,521.9771)"
       style="font-variant:normal;font-weight:bold;font-size:10.2402px;font-family:Arial;-inkscape-font-specification:'Arial Bold';writing-mode:lr-tb;fill:#231f20;fill-opacity:1;fill-rule:nonzero;stroke:none"
       id="text132"><tspan
         x="0"
         y="0"
         id="tspan130">M</tspan></text><text
       transform="matrix(0.74994101,-0.66150471,-0.66150471,-0.74994101,245.061,517.4023)"
       style="font-variant:normal;font-weight:bold;font-size:10.2401px;font-family:Arial;-inkscape-font-specification:'Arial Bold';writing-mode:lr-tb;fill:#231f20;fill-opacity:1;fill-rule:nonzero;stroke:none"
       id="text136"><tspan
         x="0"
         y="0"
         id="tspan134">e</tspan></text><text
       transform="matrix(0.66726401,-0.74482128,-0.74482128,-0.66726401,249.1836,513.7827)"
       style="font-variant:normal;font-weight:bold;font-size:10.2402px;font-family:Arial;-inkscape-font-specification:'Arial Bold';writing-mode:lr-tb;fill:#231f20;fill-opacity:1;fill-rule:nonzero;stroke:none"
       id="text140"><tspan
         x="0"
         y="0"
         id="tspan138">c</tspan></text><text
       transform="matrix(0.57036872,-0.82138877,-0.82138877,-0.57036872,252.8608,509.7241)"
       style="font-variant:normal;font-weight:bold;font-size:10.2402px;font-family:Arial;-inkscape-font-specification:'Arial Bold';writing-mode:lr-tb;fill:#231f20;fill-opacity:1;fill-rule:nonzero;stroke:none"
       id="text144"><tspan
         x="0"
         y="0"
         id="tspan142">h</tspan></text><text
       transform="matrix(0.46504154,-0.88528886,-0.88528886,-0.46504154,256.2988,504.7666)"
       style="font-variant:normal;font-weight:bold;font-size:10.2402px;font-family:Arial;-inkscape-font-specification:'Arial Bold';writing-mode:lr-tb;fill:#231f20;fill-opacity:1;fill-rule:nonzero;stroke:none"
       id="text148"><tspan
         x="0"
         y="0"
         id="tspan146">a</tspan></text><text
       transform="matrix(0.38078517,-0.92466354,-0.92466354,-0.38078517,258.8271,499.855)"
       style="font-variant:normal;font-weight:bold;font-size:10.2402px;font-family:Arial;-inkscape-font-specification:'Arial Bold';writing-mode:lr-tb;fill:#231f20;fill-opacity:1;fill-rule:nonzero;stroke:none"
       id="text152"><tspan
         x="0"
         y="0"
         id="tspan150">t</tspan></text><text
       transform="matrix(0.30976941,-0.95081171,-0.95081171,-0.30976941,260.105,496.7886)"
       style="font-variant:normal;font-weight:bold;font-size:10.2402px;font-family:Arial;-inkscape-font-specification:'Arial Bold';writing-mode:lr-tb;fill:#231f20;fill-opacity:1;fill-rule:nonzero;stroke:none"
       id="text156"><tspan
         x="0"
         y="0"
         id="tspan154">r</tspan></text><text
       transform="matrix(0.20883412,-0.97795108,-0.97795108,-0.20883412,261.3506,493.189)"
       style="font-variant:normal;font-weight:bold;font-size:10.2402px;font-family:Arial;-inkscape-font-specification:'Arial Bold';writing-mode:lr-tb;fill:#231f20;fill-opacity:1;fill-rule:nonzero;stroke:none"
       id="text160"><tspan
         x="0"
         y="0"
         id="tspan158">o</tspan></text><text
       transform="matrix(0.08121966,-0.99669623,-0.99669623,-0.08121966,262.625,487.2959)"
       style="font-variant:normal;font-weight:bold;font-size:10.2401px;font-family:Arial;-inkscape-font-specification:'Arial Bold';writing-mode:lr-tb;fill:#231f20;fill-opacity:1;fill-rule:nonzero;stroke:none"
       id="text164"><tspan
         x="0"
         y="0"
         id="tspan162">n</tspan></text><text
       transform="matrix(-0.01283185,-0.99991767,-0.99991767,0.01283185,263.0464,481.229)"
       style="font-variant:normal;font-weight:bold;font-size:10.2401px;font-family:Arial;-inkscape-font-specification:'Arial Bold';writing-mode:lr-tb;fill:#231f20;fill-opacity:1;fill-rule:nonzero;stroke:none"
       id="text168"><tspan
         x="0"
         y="0"
         id="tspan166">i</tspan></text><text
       transform="matrix(-0.10101387,-0.99488502,-0.99488502,0.10101387,263.082,478.5322)"
       style="font-variant:normal;font-weight:bold;font-size:10.2402px;font-family:Arial;-inkscape-font-specification:'Arial Bold';writing-mode:lr-tb;fill:#231f20;fill-opacity:1;fill-rule:nonzero;stroke:none"
       id="text172"><tspan
         x="0"
         y="0"
         id="tspan170">s</tspan></text><text
       transform="matrix(-0.21665541,-0.97624814,-0.97624814,0.21665541,262.5391,473.0708)"
       style="font-variant:normal;font-weight:bold;font-size:10.2402px;font-family:Arial;-inkscape-font-specification:'Arial Bold';writing-mode:lr-tb;fill:#231f20;fill-opacity:1;fill-rule:nonzero;stroke:none"
       id="text176"><tspan
         x="0"
         y="0"
         id="tspan174">c</tspan></text><text
       transform="matrix(-0.33426072,-0.94248065,-0.94248065,0.33426072,261.3804,467.7134)"
       style="font-variant:normal;font-weight:bold;font-size:10.2402px;font-family:Arial;-inkscape-font-specification:'Arial Bold';writing-mode:lr-tb;fill:#231f20;fill-opacity:1;fill-rule:nonzero;stroke:none"
       id="text180"><tspan
         x="0"
         y="0"
         id="tspan178">h</tspan></text><text
       transform="matrix(-0.44647518,-0.89479602,-0.89479602,0.44647518,259.3589,462.0239)"
       style="font-variant:normal;font-weight:bold;font-size:10.2402px;font-family:Arial;-inkscape-font-specification:'Arial Bold';writing-mode:lr-tb;fill:#231f20;fill-opacity:1;fill-rule:nonzero;stroke:none"
       id="text184"><tspan
         x="0"
         y="0"
         id="tspan182">e</tspan></text><text
       transform="matrix(-0.60917875,-0.79303294,-0.79303294,0.60917875,255.5513,454.751)"
       style="font-variant:normal;font-weight:bold;font-size:10.2402px;font-family:Arial;-inkscape-font-specification:'Arial Bold';writing-mode:lr-tb;fill:#231f20;fill-opacity:1;fill-rule:nonzero;stroke:none"
       id="text188"><tspan
         x="0"
         y="0"
         id="tspan186">K</tspan></text><text
       transform="matrix(-0.71408366,-0.70006038,-0.70006038,0.71408366,251.1851,449.1035)"
       style="font-variant:normal;font-weight:bold;font-size:10.2401px;font-family:Arial;-inkscape-font-specification:'Arial Bold';writing-mode:lr-tb;fill:#231f20;fill-opacity:1;fill-rule:nonzero;stroke:none"
       id="text192"><tspan
         x="0"
         y="0"
         id="tspan190">u</tspan></text><text
       transform="matrix(-0.79836347,-0.60217586,-0.60217586,0.79836347,246.894,444.874)"
       style="font-variant:normal;font-weight:bold;font-size:10.2402px;font-family:Arial;-inkscape-font-specification:'Arial Bold';writing-mode:lr-tb;fill:#231f20;fill-opacity:1;fill-rule:nonzero;stroke:none"
       id="text196"><tspan
         x="0"
         y="0"
         id="tspan194">n</tspan></text><text
       transform="matrix(-0.86640855,-0.49933578,-0.49933578,0.86640855,242.0757,441.2441)"
       style="font-variant:normal;font-weight:bold;font-size:10.2402px;font-family:Arial;-inkscape-font-specification:'Arial Bold';writing-mode:lr-tb;fill:#231f20;fill-opacity:1;fill-rule:nonzero;stroke:none"
       id="text200"><tspan
         x="0"
         y="0"
         id="tspan198">s</tspan></text><text
       transform="matrix(-0.9092623,-0.41622358,-0.41622358,0.9092623,237.2676,438.5264)"
       style="font-variant:normal;font-weight:bold;font-size:10.2402px;font-family:Arial;-inkscape-font-specification:'Arial Bold';writing-mode:lr-tb;fill:#231f20;fill-opacity:1;fill-rule:nonzero;stroke:none"
       id="text204"><tspan
         x="0"
         y="0"
         id="tspan202">t</tspan></text><path
       d="m 277.1665,480.25 c 0,-33.6895 -27.3105,-61.0005 -61,-61.0005 -33.6894,0 -61,27.311 -61,61.0005 0,33.6895 27.3106,61 61,61 33.6895,0 61,-27.3105 61,-61 z"
       style="fill:none;stroke:#231f20;stroke-width:2;stroke-linecap:butt;stroke-linejoin:miter;stroke-miterlimit:4;stroke-dasharray:none;stroke-opacity:1"
       id="path208"
       inkscape:export-filename="/home/dusjagr/Documents/SGMK/nextcloud/SGMK_logos/SGMK_Stempel_Color.jpg"
       inkscape:export-xdpi="600"
       inkscape:export-ydpi="600" /><path
       d="m 274.1665,480.2495 c 0,-32.0327 -25.9673,-58 -58,-58 -32.0327,0 -58,25.9673 -58,58 0,32.0327 25.9673,58 58,58 32.0327,0 58,-25.9673 58,-58 z"
       style="fill:none;stroke:#231f20;stroke-width:1;stroke-linecap:butt;stroke-linejoin:miter;stroke-miterlimit:4;stroke-dasharray:none;stroke-opacity:1"
       id="path206" /><path
       d="m 259,480.25 c 0,-23.6562 -19.1772,-42.8335 -42.8335,-42.8335 -23.6562,0 -42.8335,19.1773 -42.8335,42.8335 0,23.6563 19.1773,42.8335 42.8335,42.8335 23.6563,0 42.8335,-19.1772 42.8335,-42.8335 z"
       style="fill:none;stroke:#231f20;stroke-width:1;stroke-linecap:butt;stroke-linejoin:miter;stroke-miterlimit:4;stroke-dasharray:none;stroke-opacity:1"
       id="path210" /><path
       d="m 217.1694,428.1733 h -2.3388 v 2.3389 h 2.3388 z"
       style="fill:#231f20;fill-opacity:1;fill-rule:nonzero;stroke:none"
       id="path212" /></g></svg>
